<svg width="48" height="49" viewBox="0 0 48 49" fill="none" xmlns="http://www.w3.org/2000/svg">
<g clip-path="url(#clip0)">
<rect y="0.5" width="48" height="48" rx="24" fill="white"/>
<mask id="mask0" mask-type="alpha" maskUnits="userSpaceOnUse" x="0" y="0" width="48" height="49">
<rect y="0.5" width="48" height="48" rx="24" fill="white"/>
</mask>
<g mask="url(#mask0)">
<path fill-rule="evenodd" clip-rule="evenodd" d="M10.4799 45.4076C8.38427 46.0718 6.31424 46.8136 4.25928 47.5919C9.59493 52.2326 16.6222 55.0781 24.352 55.0781C31.7396 55.0781 38.4985 52.4915 43.7407 48.2122C41.0179 46.9833 37.1748 45.7426 37.1748 45.7426C32.605 44.8897 31.2225 43.8714 31.2225 43.8714C29.7555 43.2218 30.0073 37.0801 30.0073 37.0801C32.2703 36.7948 32.1452 30.043 32.1452 30.043C33.7373 31.0188 33.864 28.9852 33.864 28.9852C33.9469 28.2127 34.366 26.7892 34.366 26.7892C35.9174 22.03 33.6529 23.1682 33.6529 23.1682C34.9103 18.5319 34.366 14.5467 34.366 14.5467C34.0946 12.5628 33.1493 10.9125 31.4441 9.75968C30.8667 9.36905 30.2395 9.04865 29.5837 8.8014C28.6911 8.46491 33.0604 7.55052 32.1452 7.30619C31.3989 7.10576 28.9334 6.05103 26.4676 6.05103C24 6.05103 22.3842 7.25791 21.5324 7.30619C20.7348 7.30619 20.8271 7.79484 20.8271 7.79484C20.7065 7.94846 19.6767 8.13573 19.44 8.24399C19.0179 8.43564 18.6063 8.65071 18.2037 8.87894C17.1815 9.46268 16.2724 10.2161 15.3211 10.8979C14.5778 11.4304 13.634 11.7874 13.1033 12.554C12.6404 13.2241 12.3856 14.0141 12.2409 14.8012C12.0766 15.7025 11.971 16.7675 12.1519 17.6775C12.36 18.7353 12.654 23.4535 12.654 23.4535C10.9775 23.1287 11.9002 25.5281 11.9002 25.5281C12.2349 25.9758 12.6962 28.4161 12.6962 28.4161C13.1154 31.9551 14.8763 30.5316 14.8763 30.5316C14.5823 36.7948 16.7624 37.1196 16.7624 37.1196C17.0549 40.7801 16.3433 42.8956 16.3433 42.8956C15.8111 44.2503 13.9883 44.4054 12.749 44.7375C11.9861 44.9424 11.2308 45.1706 10.4799 45.4076Z" fill="#D9D9DE"/>
</g>
</g>
<defs>
<clipPath id="clip0">
<rect width="48" height="48" fill="white" transform="translate(0 0.5)"/>
</clipPath>
</defs>
</svg>
