<svg width="40" height="40" viewBox="0 0 40 40" fill="none" xmlns="http://www.w3.org/2000/svg">
<mask id="mask0" mask-type="alpha" maskUnits="userSpaceOnUse" x="0" y="0" width="40" height="40">
<circle cx="20" cy="20" r="19.5" fill="#999999" stroke="#EFEFF4"/>
</mask>
<g mask="url(#mask0)">
<circle cx="20" cy="20" r="19.5" fill="#999999" stroke="#EFEFF4"/>
<path fill-rule="evenodd" clip-rule="evenodd" d="M12.6107 32.7879C12.0766 32.9308 11.5477 33.09 11.022 33.2553C9.55479 33.7185 8.10549 34.2358 6.66675 34.7787C10.4024 38.0153 15.3224 40 20.7344 40C25.9067 40 30.6388 38.1959 34.309 35.2113C32.4027 34.3542 29.712 33.4889 29.712 33.4889C26.5126 32.894 25.5446 32.1839 25.5446 32.1839C24.5175 31.7308 24.6938 27.4473 24.6938 27.4473C26.2782 27.2483 26.1906 22.5392 26.1906 22.5392C27.3053 23.2198 27.394 21.8015 27.394 21.8015C27.452 21.2627 27.7455 20.2699 27.7455 20.2699C28.8316 16.9506 27.2462 17.7445 27.2462 17.7445C28.1265 14.5109 27.7455 11.7314 27.7455 11.7314C27.5555 10.3478 26.8936 9.19677 25.6998 8.39271C25.2955 8.12027 24.8564 7.8968 24.3972 7.72436C23.7723 7.48967 23.1252 7.17234 22.4845 7.00193C21.962 6.86214 21.4247 6.78051 20.8853 6.72949C20.291 6.67439 19.6851 6.64786 19.0887 6.68153C18.5303 6.68153 18.2664 7.02234 18.2664 7.02234C18.182 7.12948 17.461 7.26009 17.2953 7.3356C16.9997 7.46927 16.7116 7.61926 16.4297 7.77844C15.7141 8.18557 15.0775 8.71107 14.4115 9.18656C13.8911 9.55798 13.2303 9.80695 12.8587 10.3416C12.5347 10.809 12.3563 11.36 12.2549 11.9089C12.1399 12.5375 12.066 13.2803 12.1927 13.915C12.3383 14.6527 12.5442 17.9435 12.5442 17.9435C11.3704 17.7169 12.0164 19.3903 12.0164 19.3903C12.2507 19.7026 12.5737 21.4046 12.5737 21.4046C12.8672 23.8729 14.1001 22.88 14.1001 22.88C13.8943 27.2483 15.4206 27.4748 15.4206 27.4748C15.6254 30.0278 15.1272 31.5033 15.1272 31.5033C14.7545 32.4481 13.4784 32.5563 12.6107 32.7879Z" fill="#F2F2F2"/>
</g>
</svg>
